<svg xmlns="http://www.w3.org/2000/svg" width="58" height="58" fill="none"><g clip-path="url(#a)" filter="url(#b)"><rect width="50" height="50" x="4" fill="#4D8DFF" rx="19"/><path fill="#fff" d="m29.482 24.643 1.17.544 1.74-.517v-1.215c0-2.062-1.74-3.714-3.82-3.714-2.072 0-3.822 1.643-3.822 3.688v5.535c0 .51-.41.911-.91.911s-.911-.402-.911-.91v-2.34H20V29a3.83 3.83 0 0 0 3.83 3.83c2.099 0 3.83-1.687 3.83-3.776v-5.465c0-.5.411-.91.911-.91s.911.41.911.91v1.054Zm4.732 1.982v2.455c0 .5-.41.902-.91.902s-.911-.402-.911-.902v-2.41l-1.741.517-1.17-.544v2.393c0 2.098 1.723 3.794 3.83 3.794a3.83 3.83 0 0 0 3.83-3.83v-2.375h-2.928Z"/></g><defs><clipPath id="a"><path fill="#fff" d="M4 0h50v50H4z"/></clipPath><filter id="b" width="58" height="58" x="0" y="0" color-interpolation-filters="sRGB" filterUnits="userSpaceOnUse"><feFlood flood-opacity="0" result="BackgroundImageFix"/><feColorMatrix in="SourceAlpha" result="hardAlpha" values="0 0 0 0 0 0 0 0 0 0 0 0 0 0 0 0 0 0 127 0"/><feOffset dy="4"/><feGaussianBlur stdDeviation="2"/><feColorMatrix values="0 0 0 0 0 0 0 0 0 0 0 0 0 0 0 0 0 0 0.25 0"/><feBlend in2="BackgroundImageFix" result="effect1_dropShadow_1_549"/><feBlend in="SourceGraphic" in2="effect1_dropShadow_1_549" result="shape"/></filter></defs></svg>