<svg xmlns="http://www.w3.org/2000/svg" width="58" height="58" fill="none"><g clip-path="url(#a)" filter="url(#b)"><rect width="50" height="50" x="4" fill="#740A76" rx="19"/><path fill="#fff" d="M29 33.143a.554.554 0 0 0 .393-.16l5.562-5.358c.08-.08 2.045-1.875 2.045-4.018 0-2.616-1.598-4.178-4.268-4.178-1.562 0-3.027 1.232-3.732 1.928-.705-.696-2.17-1.928-3.732-1.928-2.67 0-4.268 1.562-4.268 4.178 0 2.143 1.964 3.938 2.036 4l5.571 5.375c.107.107.25.16.393.16Z"/></g><defs><clipPath id="a"><path fill="#fff" d="M4 0h50v50H4z"/></clipPath><filter id="b" width="58" height="58" x="0" y="0" color-interpolation-filters="sRGB" filterUnits="userSpaceOnUse"><feFlood flood-opacity="0" result="BackgroundImageFix"/><feColorMatrix in="SourceAlpha" result="hardAlpha" values="0 0 0 0 0 0 0 0 0 0 0 0 0 0 0 0 0 0 127 0"/><feOffset dy="4"/><feGaussianBlur stdDeviation="2"/><feColorMatrix values="0 0 0 0 0 0 0 0 0 0 0 0 0 0 0 0 0 0 0.25 0"/><feBlend in2="BackgroundImageFix" result="effect1_dropShadow_1_557"/><feBlend in="SourceGraphic" in2="effect1_dropShadow_1_557" result="shape"/></filter></defs></svg>